<svg width="20" height="16" viewBox="0 0 20 16" fill="none" xmlns="http://www.w3.org/2000/svg">
<path d="M0 7.99993C0 8.48502 0.393178 8.87819 0.878268 8.87819H17.0282L11.4879 14.4133C11.3194 14.5818 11.2326 14.8065 11.2326 15.0312C11.2326 15.2558 11.3194 15.4805 11.4879 15.649C11.8301 15.9911 12.3866 15.9911 12.7288 15.649L19.7549 8.61778C20.0817 8.29098 20.0817 7.70887 19.7549 7.37697L12.7237 0.350825C12.3815 0.00870928 11.825 0.00870928 11.4828 0.350825C11.1407 0.692941 11.1407 1.24952 11.4828 1.59163L17.018 7.12676H0.873161C0.388071 7.12166 0 7.51484 0 7.99993Z" fill="#676767"/>
</svg>
