<svg width="16" height="13" viewBox="0 0 16 13" fill="none" xmlns="http://www.w3.org/2000/svg">
<path d="M0 6.50009C0 6.88816 0.314543 7.2027 0.702615 7.2027H13.6225L9.19036 11.6308C9.05555 11.7656 8.98611 11.9454 8.98611 12.1251C8.98611 12.3048 9.05555 12.4846 9.19036 12.6194C9.46405 12.8931 9.90931 12.8931 10.183 12.6194L15.8039 6.99437C16.0654 6.73293 16.0654 6.26725 15.8039 6.00172L10.1789 0.380807C9.90523 0.107114 9.45997 0.107114 9.18627 0.380807C8.91258 0.6545 8.91258 1.09976 9.18627 1.37345L13.6144 5.80156H0.698529C0.310457 5.79747 0 6.11202 0 6.50009Z" fill="#676767"/>
</svg>
