<svg width="70" height="42" viewBox="0 0 70 42" fill="none" xmlns="http://www.w3.org/2000/svg">
<path d="M67.891 36.9035H66.3327C65.2934 36.9035 64.2963 36.4906 63.5614 35.7558L62.7539 34.9483V31.1917C63.1871 30.5279 63.6656 29.5457 63.6656 28.4498C63.6656 26.4487 62.0703 24.8268 62.0703 24.8268C62.0703 24.8268 60.4751 26.4487 60.4751 28.4498C60.4751 29.5463 60.9536 30.5279 61.3867 31.1917V32.1274C61.2677 31.9068 61.1181 31.6959 60.9317 31.5089C59.916 30.4937 58.1781 30.585 58.1781 30.585C58.1781 30.585 58.0863 32.3234 59.1015 33.3386C59.7867 34.0238 60.7993 34.2043 61.3867 34.2497V34.9483L60.5793 35.7558C59.8444 36.4906 58.8473 36.9035 57.808 36.9035H54.985C53.9457 36.9035 52.9486 36.4906 52.2138 35.7558L51.9772 35.5186C51.2845 34.826 50.1609 34.826 49.4682 35.5186L49.2316 35.7558C48.4967 36.4906 47.4996 36.9035 46.4604 36.9035H38.2145C39.6186 36.1616 40.3443 34.505 39.8605 32.9311L36.0911 21.0734C35.7151 19.8489 34.678 18.9431 33.4139 18.7353L32.7191 18.6211L27.0773 24.5309L30.2549 25.0543L33.4101 34.913C33.6841 35.8049 34.2945 36.4997 35.0588 36.9035H22.9789C24.6831 36.003 25.2775 33.8764 24.3216 32.2288L17.6036 20.6515L22.7888 26.202L31.8806 16.6776L28.9225 9.44915L34.0211 16.7155C34.2118 16.9874 34.4505 17.2213 34.7261 17.4061L44.2964 23.8319C45.5365 24.665 47.2123 24.3307 48.0417 23.0959C48.8519 21.89 48.5565 20.2692 47.396 19.4179V15.1956C47.8286 14.5318 48.3071 13.5502 48.3071 12.4538C48.3071 10.4526 46.7124 8.83071 46.7124 8.83071C46.7124 8.83071 45.1172 10.4526 45.1172 12.4538C45.1172 13.5502 45.5957 14.5318 46.0289 15.1961V18.4929L38.152 13.2041L33.3412 6.34787L36.6375 9.33112L38.8597 11.25L43.9006 14.6348C43.6518 13.9892 43.4766 13.2516 43.4766 12.4538C43.4766 11.6302 43.6635 10.8703 43.9247 10.2102H40.2856L30.1342 1.98089C28.4963 0.417164 25.9008 0.477513 24.3376 2.11547L10.4142 16.9195C9.43843 17.9567 9.15912 19.5434 9.91428 20.8443C10.9909 22.7002 14.1921 28.2175 15.5443 30.5482H5.76252C3.90239 30.5482 2.33066 32.0184 2.30716 33.8785C2.29061 35.1891 3.02227 36.3304 4.10106 36.9035H2.05081C0.889773 36.9035 -0.0528386 37.8754 0.00216935 39.053C0.0545071 40.1564 1.00566 41.005 2.11009 41.005H67.9492C69.1146 41.005 70.0534 40.033 69.9979 38.8554C69.9456 37.7521 68.9955 36.9035 67.891 36.9035Z" fill="white"/>
</svg>
